<?xml version="1.0" standalone="no"?>
<!DOCTYPE svg PUBLIC "-//W3C//DTD SVG 20010904//EN"
 "http://www.w3.org/TR/2001/REC-SVG-20010904/DTD/svg10.dtd">
<svg version="1.0" xmlns="http://www.w3.org/2000/svg"
 width="500.000000pt" height="507.000000pt" viewBox="0 0 500.000000 507.000000"
 preserveAspectRatio="xMidYMid meet">

<g transform="translate(0.000000,507.000000) scale(0.100000,-0.100000)"
fill="#000000" stroke="none">
<path d="M1647 4970 c-67 -17 -111 -47 -177 -120 -36 -40 -69 -79 -74 -87 -4
-8 -16 -23 -25 -32 -50 -53 -172 -227 -164 -235 4 -3 1 -6 -4 -6 -6 0 -22 -19
-36 -42 -13 -24 -40 -71 -60 -105 -21 -37 -31 -63 -24 -66 6 -2 -56 -36 -139
-76 -448 -218 -713 -504 -763 -828 -48 -311 92 -784 381 -1288 75 -131 81
-145 90 -220 54 -484 219 -1005 416 -1305 80 -123 189 -256 247 -302 60 -47
187 -110 270 -133 39 -11 117 -19 225 -22 192 -6 330 10 511 58 63 16 173 45
244 64 216 56 292 88 508 212 64 37 170 97 234 133 558 310 1119 799 1390
1212 86 130 177 323 210 444 36 133 38 299 5 421 -28 106 -83 233 -154 354
-49 84 -56 104 -62 170 -28 289 -148 539 -345 720 -198 182 -618 387 -985 480
-64 16 -112 39 -231 110 -369 222 -804 412 -1085 474 -87 19 -346 29 -403 15z
m891 -702 c3 -25 0 -28 -27 -28 -26 0 -31 4 -31 23 0 30 9 39 35 35 13 -2 21
-12 23 -30z m-134 6 c12 -31 6 -44 -19 -44 -15 0 -25 6 -25 14 0 8 -3 21 -6
30 -5 12 0 16 19 16 14 0 28 -7 31 -16z m258 -10 c-5 -27 -23 -40 -46 -31 -9
3 -12 15 -9 31 4 20 11 26 33 26 24 0 27 -3 22 -26z m-452 -24 c0 -25 -4 -30
-25 -30 -21 0 -25 5 -25 30 0 25 4 30 25 30 21 0 25 -5 25 -30z m648 -3 c3
-26 1 -28 -25 -25 -22 2 -29 9 -31 31 -3 26 -1 28 25 25 22 -2 29 -9 31 -31z
m-781 -49 c-27 -17 -47 -8 -47 21 0 39 31 47 47 12 8 -20 8 -28 0 -33z m911
23 c-3 -27 -24 -37 -47 -22 -12 8 -13 15 -4 34 16 35 55 26 51 -12z m-488 -15
c0 -22 -6 -26 -44 -31 -63 -10 -80 -4 -84 28 l-3 27 65 0 c63 0 66 -1 66 -24z
m150 20 c0 -27 -23 -56 -44 -56 -58 0 -86 12 -86 36 0 23 3 24 65 24 36 0 65
-2 65 -4z m-691 -28 c5 -13 7 -26 4 -30 -9 -15 -39 -7 -52 13 -11 18 -11 23 1
30 22 15 38 10 47 -13z m1150 13 c11 -7 10 -13 -4 -35 -14 -21 -21 -24 -36
-15 -22 11 -23 14 -9 40 11 20 27 24 49 10z m-899 -30 c0 -27 -4 -30 -50 -40
-75 -16 -80 -15 -80 18 0 28 3 30 53 39 78 14 77 15 77 -17z m693 13 c34 -6
38 -9 35 -33 -3 -24 -7 -26 -43 -24 -66 4 -82 11 -87 38 -6 31 0 37 32 31 14
-3 42 -8 63 -12z m-839 -30 c13 -33 5 -43 -50 -59 -31 -9 -57 -15 -59 -13 -1
2 -8 13 -14 26 -13 25 -15 24 61 47 56 18 55 18 62 -1z m974 -5 c44 -13 50
-24 30 -52 -12 -15 -17 -15 -65 -1 -44 13 -53 19 -53 38 0 28 9 38 29 32 9 -3
35 -10 59 -17z m-463 -61 c9 -76 37 -160 71 -212 l26 -39 -59 8 c-32 4 -59 8
-60 8 0 1 -3 13 -5 27 -2 20 2 26 20 28 48 7 -5 82 -58 82 -32 0 -65 -25 -75
-57 -5 -17 -1 -22 17 -25 17 -2 24 -11 26 -30 3 -24 0 -28 -25 -29 -15 -1 -54
-3 -85 -5 -34 -1 -58 2 -58 7 0 6 10 9 23 7 33 -5 86 107 101 212 l10 80 62 0
62 0 7 -62z m-815 22 c0 -35 -36 -62 -51 -39 -15 24 -10 46 14 57 33 16 37 15
37 -18z m1538 14 c17 -11 21 -21 16 -37 -9 -30 -8 -29 -38 -16 -16 8 -25 18
-21 27 3 7 5 20 5 28 0 18 10 18 38 -2z m-1140 -71 c26 -70 73 -147 114 -185
17 -16 29 -30 27 -32 -2 -2 -29 -7 -60 -10 -53 -7 -57 -6 -62 15 -7 27 -1 39
19 39 21 0 17 18 -11 45 -46 47 -123 22 -128 -40 -2 -25 1 -30 19 -28 16 2 24
-5 28 -23 4 -15 6 -28 4 -29 -3 -4 -118 -34 -118 -32 0 1 9 31 20 65 14 45 20
92 20 157 l0 93 38 10 c65 17 68 16 90 -45z m783 47 l36 -10 6 -98 c3 -63 12
-116 26 -152 12 -30 21 -58 21 -61 0 -4 -27 0 -60 8 -43 11 -60 20 -60 32 0
26 15 42 33 35 14 -5 17 0 17 25 0 63 -79 94 -127 49 -29 -27 -30 -48 -2 -48
15 0 19 -4 15 -16 -3 -9 -6 -22 -6 -30 0 -12 -11 -14 -62 -8 -35 4 -64 8 -66
9 -2 2 17 24 42 50 39 39 100 146 120 208 6 20 17 21 67 7z m-176 -64 c11 -8
16 -19 12 -30 -5 -11 0 -19 14 -24 20 -8 19 -11 -20 -60 -42 -53 -71 -67 -71
-34 0 14 -2 14 -9 3 -14 -22 -40 -5 -61 41 -24 52 -25 68 -5 68 9 0 15 9 15
25 0 14 6 25 13 25 8 0 24 11 37 25 l24 25 16 -25 c9 -14 25 -31 35 -39z
m-440 34 c10 -11 24 -20 32 -20 7 0 13 -11 13 -24 0 -17 6 -26 20 -28 19 -3
18 -5 -7 -60 -26 -58 -39 -68 -61 -46 -9 9 -12 8 -12 -5 0 -31 -28 -18 -65 29
-39 52 -43 64 -19 64 12 0 15 7 12 25 -3 15 -1 25 6 25 7 0 20 14 29 30 21 35
28 37 52 10z m1013 -45 c3 -3 -15 -43 -23 -53 -1 -2 -19 7 -39 19 -24 14 -35
27 -32 36 3 8 6 21 6 29 0 11 9 10 43 -7 23 -12 43 -23 45 -24z m141 -2 c5 -4
-30 -43 -38 -43 -3 0 -21 9 -39 20 -32 20 -33 20 -15 44 l18 24 35 -21 c19
-11 37 -22 39 -24z m-1850 15 c11 -18 11 -22 0 -29 -8 -4 -23 -15 -34 -23 -29
-22 -5 -19 30 4 38 25 40 25 53 -4 10 -22 8 -27 -24 -45 -20 -12 -40 -19 -45
-16 -19 12 -72 99 -62 102 5 2 19 10 29 18 26 20 37 18 53 -7z m141 -6 c0 -22
-7 -32 -35 -45 -33 -16 -35 -16 -45 3 -15 29 -13 35 23 53 46 23 57 21 57 -11z
m650 11 c0 -5 -5 -15 -10 -23 -9 -13 -11 -13 -19 0 -5 8 -7 18 -5 22 6 10 34
11 34 1z m210 3 c0 -12 -13 -36 -20 -36 -4 0 -10 9 -13 20 -4 15 0 20 14 20
10 0 19 -2 19 -4z m-410 -37 c0 -24 -23 -21 -28 4 -2 10 3 17 12 17 10 0 16
-9 16 -21z m610 17 c0 -2 -3 -11 -6 -20 -9 -23 -34 -20 -34 4 0 13 7 20 20 20
11 0 20 -2 20 -4z m314 -56 c3 -22 11 -40 16 -40 6 0 8 -11 4 -24 -4 -17 -1
-27 11 -33 15 -9 11 -15 -26 -46 -44 -38 -86 -50 -75 -22 3 8 1 15 -4 15 -6 0
-10 -4 -10 -10 0 -5 -4 -10 -10 -10 -11 0 -34 51 -44 97 -6 25 -4 31 13 36 12
3 21 12 21 21 0 9 8 16 18 16 9 0 28 9 42 20 34 27 37 26 44 -20z m254 20 c35
-21 40 -41 17 -60 -12 -10 -21 -8 -50 10 -39 24 -39 24 -25 51 13 24 17 24 58
-1z m-1473 -14 c11 -8 24 -12 30 -10 6 3 17 -7 23 -20 7 -16 17 -23 26 -20 11
4 12 -3 5 -41 -9 -49 -25 -85 -37 -85 -5 0 -13 5 -20 12 -9 9 -12 8 -12 -4 0
-31 -29 -27 -72 12 -34 31 -40 41 -29 49 8 5 11 16 8 24 -7 18 33 97 49 97 5
0 19 -6 29 -14z m1105 -11 c0 -8 -4 -16 -9 -19 -12 -8 -34 21 -27 33 9 14 36
2 36 -14z m-1012 -2 c-5 -25 -28 -28 -28 -4 0 12 6 21 16 21 9 0 14 -7 12 -17z
m530 1 c12 -8 22 -22 22 -30 0 -19 -26 -18 -34 1 -3 8 -15 15 -26 15 -11 0
-23 -7 -26 -15 -8 -19 -34 -20 -34 -1 0 17 38 46 60 46 9 0 26 -7 38 -16z
m-796 -26 c24 -50 106 -137 152 -160 36 -18 38 -22 21 -28 -11 -5 -44 -17 -72
-29 l-53 -21 -11 22 c-9 17 -8 24 6 34 15 12 15 14 -5 34 -16 16 -30 21 -52
18 -24 -4 -32 0 -41 20 -9 20 -9 26 1 30 20 6 14 19 -12 26 -19 5 -44 34 -34
41 49 30 74 45 79 45 3 0 12 -15 21 -32z m1582 8 c38 -24 38 -24 18 -44 -11
-11 -26 -22 -33 -25 -12 -5 -12 -7 0 -15 23 -16 -4 -52 -40 -52 -55 0 -94 -38
-54 -54 12 -4 13 -10 3 -31 -6 -14 -16 -24 -22 -21 -6 3 -37 15 -68 28 -32 13
-57 25 -57 28 0 3 28 25 62 50 35 25 79 70 101 103 22 31 42 57 45 57 3 0 23
-11 45 -24z m-1166 -22 c25 -17 29 -34 7 -34 -8 0 -15 5 -15 10 0 18 -50 10
-62 -10 -16 -25 -28 -26 -28 -1 0 22 35 51 60 51 9 0 26 -7 38 -16z m762 -4
c21 -21 27 -50 10 -50 -5 0 -14 9 -20 20 -11 21 -54 28 -65 10 -9 -15 -25 -12
-25 5 0 35 69 46 100 15z m280 -10 c11 -7 12 -12 3 -21 -16 -16 -44 -4 -37 16
7 17 13 18 34 5z m-1377 -14 c3 -8 0 -17 -8 -20 -15 -5 -39 17 -28 27 11 12
31 8 36 -7z m867 -46 c0 -5 -4 -10 -10 -10 -5 0 -10 5 -10 10 0 6 5 10 10 10
6 0 10 -4 10 -10z m40 -31 c209 -23 547 -136 512 -171 -8 -8 -35 -1 -89 21
-221 88 -379 116 -658 116 -273 -1 -441 -31 -648 -116 -78 -32 -97 -35 -97
-15 0 17 141 78 259 111 243 68 449 84 721 54z m-965 -32 c25 -19 4 -30 -31
-16 -23 8 -25 12 -14 19 20 13 23 12 45 -3z m1516 -2 c0 -12 -40 -24 -59 -17
-10 3 -10 8 -1 19 13 15 59 14 60 -2z m-1326 -14 c-3 -6 -11 -8 -17 -5 -6 4
-5 9 3 15 16 10 23 4 14 -10z m1100 9 c3 -5 1 -10 -4 -10 -6 0 -11 5 -11 10 0
6 2 10 4 10 3 0 8 -4 11 -10z m-565 -20 c0 -18 -7 -20 -80 -20 -63 0 -80 3
-80 14 0 16 27 22 108 25 46 1 52 -1 52 -19z m148 14 c12 -4 22 -13 22 -20 0
-11 -18 -14 -75 -14 -68 0 -75 2 -75 20 0 17 7 20 53 20 28 0 62 -3 75 -6z
m-320 -25 c2 -14 -10 -18 -70 -25 -97 -11 -92 -11 -96 8 -2 13 10 18 60 26 81
13 102 11 106 -9z m490 4 c23 -4 32 -11 32 -25 0 -14 -5 -18 -17 -14 -10 3
-45 8 -78 12 -71 8 -76 10 -68 30 6 16 25 16 131 -3z m-670 -29 c-4 -20 -138
-58 -152 -43 -15 14 3 26 64 42 75 20 92 21 88 1z m807 0 c52 -13 65 -20 65
-36 0 -15 -5 -18 -20 -14 -11 3 -28 8 -37 10 -95 24 -102 27 -97 41 8 19 11
19 89 -1z m-150 -19 c172 -30 405 -105 405 -131 0 -21 -21 -18 -148 26 -353
120 -789 115 -1145 -13 -81 -30 -99 -33 -104 -21 -7 19 -12 16 84 53 102 38
252 76 358 90 44 6 94 13 110 15 62 9 353 -4 440 -19z m-825 -22 c0 -22 -118
-69 -134 -53 -13 13 -8 17 60 44 73 30 74 30 74 9z m1135 -9 c62 -25 75 -36
56 -48 -6 -4 -80 17 -139 40 -4 2 9 34 14 34 2 0 33 -12 69 -26z m-1282 -48
c6 -16 -19 -30 -28 -16 -7 11 2 30 15 30 4 0 10 -6 13 -14z m1381 5 c3 -5 -1
-14 -8 -20 -16 -13 -32 2 -21 19 8 12 22 13 29 1z m112 -92 c12 -10 14 -143
14 -798 0 -484 -4 -799 -10 -820 -11 -39 -51 -86 -92 -107 -21 -11 -82 -14
-283 -14 -217 0 -262 -3 -291 -16 -41 -20 -88 -83 -103 -142 -16 -57 -51 -56
-65 3 -9 38 -62 121 -89 140 -18 12 -70 15 -287 15 -159 0 -281 4 -305 11 -49
13 -92 51 -116 104 -18 38 -19 82 -19 831 0 435 3 793 6 797 4 3 371 6 817 7
592 0 813 -3 823 -11z m-1896 -499 l0 -180 -305 0 -305 0 0 99 0 98 46 6 c26
2 58 14 73 24 36 27 71 81 71 109 l0 24 210 0 210 0 0 -180z m2410 157 c0 -64
83 -137 157 -137 l33 0 0 -100 0 -100 -295 0 c-162 0 -298 -1 -302 -2 -5 -2
-9 79 -11 180 l-2 182 210 0 210 0 0 -23z m-2285 -118 l55 -77 -2 -176 -3
-177 -77 104 -78 104 0 179 1 179 24 -30 c14 -16 50 -64 80 -106z m2579 -116
l76 -96 0 -111 c0 -63 -4 -106 -9 -101 -5 6 -41 54 -80 107 l-71 97 0 100 c0
56 2 101 4 101 3 0 39 -43 80 -97z m-2633 -213 c37 -47 68 -88 68 -92 1 -5
-48 -8 -109 -8 -109 0 -110 0 -110 24 0 39 -42 90 -87 105 -35 13 -46 13 -79
0 -43 -16 -84 -68 -84 -105 0 -23 -3 -24 -65 -24 l-64 0 -61 79 c-33 44 -65
83 -70 86 -35 21 12 25 292 23 l302 -3 67 -85z m2607 -5 l73 -95 -114 0 -114
0 -7 38 c-15 97 -144 129 -210 52 -13 -16 -27 -43 -31 -60 -6 -30 -8 -30 -70
-30 l-63 0 -58 77 c-33 43 -65 85 -72 95 -13 17 1 18 290 18 l304 0 72 -95z
m-245 13 c14 -11 17 -53 24 -327 5 -194 12 -316 18 -318 7 -2 7 56 2 169 -4
95 -6 236 -5 313 3 124 5 137 17 116 9 -16 18 -108 27 -295 8 -149 13 -280 12
-291 -3 -16 12 -24 94 -52 90 -30 178 -68 178 -77 0 -2 -47 -21 -105 -42 -58
-22 -105 -41 -104 -44 0 -3 36 -33 79 -68 74 -58 187 -179 177 -189 -3 -2 -27
12 -53 32 -90 69 -250 136 -321 134 -15 0 -22 -3 -15 -6 8 -3 12 -29 12 -78
l0 -73 -34 -16 c-44 -21 -109 -20 -153 0 l-34 17 3 72 3 72 -60 -16 -60 -16
-6 -95 c-4 -52 -7 -140 -8 -195 -2 -146 -5 -149 -244 -230 -157 -53 -364 -98
-532 -115 -149 -16 -513 -8 -648 14 -269 43 -553 126 -605 177 l-32 31 0 193
0 192 83 -42 c261 -135 555 -199 912 -199 341 0 624 58 933 192 174 75 180 91
65 185 -40 32 -73 64 -73 71 0 37 133 127 225 151 62 17 65 19 65 49 -1 128
25 526 35 552 7 17 27 37 46 47 41 20 60 21 82 5z m-2589 -10 c3 -7 7 -151 10
-319 l6 -306 -59 -6 c-33 -4 -77 -9 -98 -13 l-38 -6 13 284 c7 155 15 294 18
306 9 41 52 72 101 72 26 0 45 -5 47 -12z m45 -40 c8 -22 39 -586 33 -593 -2
-1 -11 -1 -22 2 -16 4 -18 21 -24 181 -3 98 -8 234 -11 305 -4 123 4 158 24
105z m54 -608 c79 -12 156 -49 211 -100 71 -65 68 -72 -63 -178 -23 -18 -41
-42 -41 -53 0 -24 2 -24 -65 6 -76 33 -164 49 -238 42 -102 -10 -252 -69 -355
-139 -83 -57 -56 -16 70 107 l127 123 -90 37 c-49 21 -92 41 -94 45 -11 18
194 85 320 105 101 16 145 17 218 5z m2107 -226 c61 -48 80 -78 61 -97 -8 -8
-18 -4 -38 14 -16 14 -43 36 -60 48 -25 17 -33 30 -33 52 0 16 2 29 5 29 3 0
32 -21 65 -46z m-1850 -11 c0 -22 -12 -37 -56 -71 -38 -30 -60 -40 -66 -34
-17 17 -2 38 59 86 32 25 59 46 61 46 1 0 2 -12 2 -27z m1838 -59 c23 -19 42
-39 42 -44 0 -18 -32 -18 -65 1 -27 16 -35 27 -35 50 0 16 4 29 8 29 5 0 27
-16 50 -36z m-2205 0 l37 -7 0 -63 c0 -62 -1 -65 -32 -84 -20 -12 -51 -20 -76
-20 -47 0 -111 25 -113 44 -2 24 3 111 6 115 3 3 92 17 125 20 8 0 32 -2 53
-5z m367 -22 c0 -35 -62 -74 -83 -53 -9 10 -4 20 27 47 48 41 56 42 56 6z
m2324 19 c23 -9 25 -16 28 -85 2 -42 0 -76 -3 -76 -4 0 -18 9 -33 21 -23 18
-26 27 -26 85 0 35 2 64 4 64 3 0 16 -4 30 -9z m-2581 -57 c4 -21 7 -54 5 -72
l-3 -34 -27 22 c-25 19 -28 28 -28 80 0 57 1 59 22 51 16 -6 25 -20 31 -47z
m2077 1 c15 -18 13 -20 -17 -29 -20 -6 -23 -4 -23 18 0 29 20 34 40 11z
m-1820 -30 c0 -27 -7 -30 -30 -15 -13 9 -12 12 4 25 26 19 26 19 26 -10z
m-287 -79 c25 -19 22 -25 -25 -46 -69 -32 -155 -23 -218 22 -32 23 -21 32 16
13 40 -21 121 -18 164 5 42 23 41 23 63 6z m2611 -5 c16 -18 15 -20 -27 -40
-52 -25 -135 -28 -180 -6 -72 35 -92 69 -24 40 49 -20 115 -18 157 5 44 24 53
24 74 1z m-2913 -268 c13 -16 12 -17 -3 -4 -10 7 -18 15 -18 17 0 8 8 3 21
-13z m90 -110 c13 -16 12 -17 -3 -4 -10 7 -18 15 -18 17 0 8 8 3 21 -13z m40
-50 c13 -16 12 -17 -3 -4 -10 7 -18 15 -18 17 0 8 8 3 21 -13z m70 -80 c13
-16 12 -17 -3 -4 -10 7 -18 15 -18 17 0 8 8 3 21 -13z m59 -68 c13 -14 21 -25
18 -25 -2 0 -15 11 -28 25 -13 14 -21 25 -18 25 2 0 15 -11 28 -25z m215 -225
c71 -71 127 -130 125 -130 -3 0 -64 59 -135 130 -71 72 -127 130 -125 130 3 0
64 -58 135 -130z m210 -200 c10 -11 16 -20 13 -20 -3 0 -13 9 -23 20 -10 11
-16 20 -13 20 3 0 13 -9 23 -20z m66 -57 c13 -16 12 -17 -3 -4 -17 13 -22 21
-14 21 2 0 10 -8 17 -17z m50 -40 c13 -16 12 -17 -3 -4 -17 13 -22 21 -14 21
2 0 10 -8 17 -17z m50 -40 c13 -16 12 -17 -3 -4 -10 7 -18 15 -18 17 0 8 8 3
21 -13z"/>
<path d="M2492 4074 c-11 -12 -10 -17 2 -30 15 -14 17 -14 32 0 14 14 14 18 0
31 -18 18 -18 18 -34 -1z"/>
<path d="M2081 4038 c-10 -26 -3 -32 25 -21 19 8 19 9 2 26 -18 17 -19 17 -27
-5z"/>
<path d="M2907 4042 c-17 -19 -17 -20 5 -25 28 -8 30 -5 20 22 -8 22 -8 22
-25 3z"/>
<path d="M2700 4030 c0 -5 5 -10 10 -10 6 0 10 5 10 10 0 6 -4 10 -10 10 -5 0
-10 -4 -10 -10z"/>
<path d="M2680 4000 c0 -5 5 -10 10 -10 6 0 10 5 10 10 0 6 -4 10 -10 10 -5 0
-10 -4 -10 -10z"/>
<path d="M2710 4000 c0 -5 5 -10 10 -10 6 0 10 5 10 10 0 6 -4 10 -10 10 -5 0
-10 -4 -10 -10z"/>
<path d="M2660 3976 c0 -9 -4 -16 -10 -16 -5 0 -10 -4 -10 -10 0 -16 14 -11
27 10 8 12 9 21 3 25 -6 3 -10 -1 -10 -9z"/>
<path d="M2683 3960 c-8 -12 -9 -21 -3 -25 6 -3 10 1 10 9 0 9 5 16 10 16 6 0
10 5 10 10 0 16 -14 11 -27 -10z"/>
<path d="M2730 3970 c0 -5 5 -10 10 -10 6 0 10 5 10 10 0 6 -4 10 -10 10 -5 0
-10 -4 -10 -10z"/>
<path d="M2710 3940 c0 -5 5 -10 10 -10 6 0 10 5 10 10 0 6 -4 10 -10 10 -5 0
-10 -4 -10 -10z"/>
<path d="M2740 3940 c0 -5 5 -10 10 -10 6 0 10 5 10 10 0 6 -4 10 -10 10 -5 0
-10 -4 -10 -10z"/>
<path d="M2290 4030 c0 -5 5 -10 10 -10 6 0 10 5 10 10 0 6 -4 10 -10 10 -5 0
-10 -4 -10 -10z"/>
<path d="M2280 4000 c0 -5 5 -10 10 -10 6 0 10 5 10 10 0 6 -4 10 -10 10 -5 0
-10 -4 -10 -10z"/>
<path d="M2315 4000 c4 -6 11 -8 16 -5 14 9 11 15 -7 15 -8 0 -12 -5 -9 -10z"/>
<path d="M2336 3981 c-4 -5 -2 -12 3 -15 5 -4 12 -2 15 3 4 5 2 12 -3 15 -5 4
-12 2 -15 -3z"/>
<path d="M2265 3970 c-3 -5 1 -10 10 -10 9 0 13 5 10 10 -3 6 -8 10 -10 10 -2
0 -7 -4 -10 -10z"/>
<path d="M2300 3970 c0 -5 5 -10 10 -10 6 0 10 5 10 10 0 6 -4 10 -10 10 -5 0
-10 -4 -10 -10z"/>
<path d="M2356 3951 c-4 -5 -2 -12 3 -15 5 -4 12 -2 15 3 4 5 2 12 -3 15 -5 4
-12 2 -15 -3z"/>
<path d="M2250 3941 c0 -6 5 -13 10 -16 6 -3 10 1 10 9 0 9 -4 16 -10 16 -5 0
-10 -4 -10 -9z"/>
<path d="M2290 3940 c0 -5 5 -10 11 -10 5 0 7 5 4 10 -3 6 -8 10 -11 10 -2 0
-4 -4 -4 -10z"/>
<path d="M2320 3940 c0 -5 5 -10 10 -10 6 0 10 5 10 10 0 6 -4 10 -10 10 -5 0
-10 -4 -10 -10z"/>
<path d="M3091 3934 c-20 -23 -9 -25 19 -4 16 13 20 20 10 19 -8 0 -21 -7 -29
-15z"/>
<path d="M3110 3910 c0 -5 5 -10 10 -10 6 0 10 5 10 10 0 6 -4 10 -10 10 -5 0
-10 -4 -10 -10z"/>
<path d="M3050 3900 c0 -5 5 -10 10 -10 6 0 10 5 10 10 0 6 -4 10 -10 10 -5 0
-10 -4 -10 -10z"/>
<path d="M3075 3880 c-10 -11 -15 -23 -12 -26 4 -4 9 1 13 10 5 13 14 15 35
11 19 -4 29 -3 29 5 0 7 -7 10 -15 6 -8 -3 -15 -1 -15 4 0 16 -16 11 -35 -10z"/>
<path d="M3026 3881 c-4 -5 -2 -12 3 -15 5 -4 12 -2 15 3 4 5 2 12 -3 15 -5 4
-12 2 -15 -3z"/>
<path d="M3095 3850 c4 -6 10 -8 15 -5 4 3 10 -1 13 -7 2 -7 8 -9 13 -5 5 4 2
12 -6 17 -20 13 -43 13 -35 0z"/>
<path d="M1890 3940 c0 -5 4 -10 9 -10 6 0 13 5 16 10 3 6 -1 10 -9 10 -9 0
-16 -4 -16 -10z"/>
<path d="M1920 3920 c0 -5 5 -10 10 -10 6 0 10 5 10 10 0 6 -4 10 -10 10 -5 0
-10 -4 -10 -10z"/>
<path d="M1885 3910 c-3 -5 1 -10 10 -10 9 0 13 5 10 10 -3 6 -8 10 -10 10 -2
0 -7 -4 -10 -10z"/>
<path d="M1945 3900 c-3 -6 -1 -10 6 -10 6 0 18 -8 25 -17 11 -15 13 -15 14
-3 0 19 -37 43 -45 30z"/>
<path d="M1915 3891 c-3 -5 -1 -12 5 -16 5 -3 10 1 10 9 0 18 -6 21 -15 7z"/>
<path d="M1880 3885 c0 -6 5 -16 12 -23 9 -9 8 -12 -5 -12 -9 0 -17 -4 -17
-10 0 -5 7 -10 15 -10 8 0 15 4 15 10 0 5 7 7 15 4 8 -4 15 -1 15 5 0 6 -5 11
-11 11 -7 0 -18 8 -25 18 -7 9 -14 12 -14 7z"/>
<path d="M1940 3860 c0 -5 5 -10 10 -10 6 0 10 5 10 10 0 6 -4 10 -10 10 -5 0
-10 -4 -10 -10z"/>
<path d="M3310 2749 c0 -741 -1 -786 -19 -824 -21 -45 -58 -83 -99 -101 -15
-7 -21 -13 -13 -13 8 -1 34 8 57 20 31 15 48 32 63 62 19 41 20 66 22 834 2
436 0 796 -4 799 -4 4 -7 -346 -7 -777z"/>
<path d="M1840 3443 l0 -33 56 0 57 0 -6 -72 c-4 -40 -9 -84 -12 -98 -6 -25
-5 -25 47 -23 30 1 52 6 51 12 -12 49 -24 155 -19 167 4 10 21 14 58 14 53 0
53 0 54 33 l0 32 -143 0 -143 0 0 -32z"/>
<path d="M2423 3458 c-11 -13 -25 -33 -31 -44 -8 -15 -18 -20 -35 -17 -24 5
-25 2 -32 -71 -7 -81 1 -105 33 -104 9 0 29 -3 45 -7 25 -7 27 -5 27 21 l1 29
24 -29 24 -29 9 34 10 34 1 -32 c1 -38 14 -49 32 -27 11 13 9 23 -9 57 -12 23
-22 53 -21 67 1 22 2 21 10 -8 20 -68 69 -45 69 32 0 30 3 37 10 26 13 -20 13
-77 -1 -102 -6 -11 -12 -33 -13 -48 -2 -27 0 -28 33 -23 57 8 78 53 47 98 -7
11 -16 33 -20 49 -9 36 -41 83 -66 96 -16 8 -22 6 -35 -14 -16 -24 -15 -26 4
-47 19 -21 27 -39 17 -39 -12 0 -96 92 -96 105 0 21 -13 19 -37 -7z m49 -63
c14 -32 6 -40 -24 -23 -12 7 -25 14 -27 15 -5 3 23 32 32 33 4 0 13 -11 19
-25z m-38 -54 c3 -5 -5 -8 -19 -7 -14 0 -25 4 -25 9 0 10 38 9 44 -2z m-39
-89 c-7 -8 -35 7 -35 18 0 6 7 6 20 -2 10 -7 17 -14 15 -16z"/>
<path d="M2880 3443 l0 -33 51 2 c28 0 54 -3 59 -8 9 -9 -3 -124 -16 -166 -5
-16 2 -18 51 -18 50 0 56 2 50 18 -4 9 -12 48 -17 85 -13 82 -8 90 59 89 49
-2 49 -1 49 31 l0 32 -143 0 -143 0 0 -32z"/>
<path d="M2315 3185 c-14 -13 -25 -36 -25 -50 0 -14 11 -37 25 -50 24 -24 28
-25 180 -25 152 0 156 1 180 25 14 13 25 36 25 50 0 28 -40 75 -64 75 -32 0
-66 -23 -66 -45 0 -34 23 -49 52 -34 20 11 22 11 10 -4 -11 -13 -29 -14 -106
-10 -60 4 -100 2 -113 -6 -25 -13 -49 -6 -57 16 -5 13 -4 14 8 4 25 -21 56 -4
56 29 0 52 -64 67 -105 25z"/>
<path d="M1800 3181 c0 -5 17 -16 38 -24 89 -36 174 -78 170 -83 -3 -3 -51 15
-107 41 -56 25 -103 45 -104 45 -2 0 -4 -6 -5 -12 0 -7 -2 -21 -4 -31 -2 -15
23 -29 126 -73 91 -39 132 -52 139 -45 13 13 24 7 -125 76 -71 32 -126 60
-124 63 3 2 58 -21 123 -51 113 -52 118 -54 126 -34 4 11 6 21 4 23 -2 2 -54
29 -115 59 -108 53 -142 64 -142 46z m93 -103 c89 -40 122 -59 102 -57 -14 1
-212 97 -202 98 5 1 50 -18 100 -41z"/>
<path d="M3059 3134 c-63 -31 -115 -57 -116 -58 -1 -1 0 -11 3 -23 6 -21 10
-19 122 33 63 30 120 53 125 51 5 -1 -49 -29 -119 -62 -151 -69 -140 -63 -127
-76 7 -7 46 5 126 40 125 53 158 70 141 71 -6 0 -55 -20 -109 -45 -54 -25
-100 -44 -102 -41 -5 4 184 96 198 96 4 0 7 9 6 20 -1 11 -2 20 -3 20 -1 0
-48 -20 -104 -45 -56 -25 -105 -44 -108 -41 -5 6 183 96 200 96 5 0 6 5 3 10
-10 15 -14 14 -136 -46z"/>
<path d="M2440 3153 c0 -15 9 -18 55 -18 46 0 55 3 55 18 0 14 -9 17 -55 17
-46 0 -55 -3 -55 -17z"/>
<path d="M1804 3071 c3 -5 51 -28 106 -52 56 -23 103 -46 106 -51 6 -10 -19 0
-120 46 -44 20 -81 35 -83 33 -7 -8 25 -25 130 -67 75 -31 111 -40 118 -33 11
11 5 15 -165 92 -95 44 -100 46 -92 32z"/>
<path d="M3095 3034 c-146 -64 -167 -76 -157 -86 12 -12 55 0 46 13 -5 9 109
66 166 84 47 14 6 -11 -73 -45 -42 -18 -76 -34 -74 -36 6 -6 161 58 177 73 13
11 13 13 0 13 -13 0 -13 2 0 10 31 20 -8 8 -85 -26z"/>
<path d="M2063 3044 c-3 -9 0 -20 8 -25 11 -7 10 -11 -5 -22 -19 -14 -19 -15
3 -26 18 -10 20 -15 11 -27 -10 -11 -9 -15 4 -20 11 -4 15 -13 11 -25 -5 -15
-1 -19 20 -19 24 0 26 -3 21 -25 -6 -22 -3 -25 18 -25 19 0 23 -4 19 -20 -4
-16 0 -20 17 -20 18 0 20 -3 11 -13 -13 -16 -5 -28 15 -20 9 3 14 -1 14 -12 0
-12 5 -15 20 -10 15 5 20 2 20 -10 0 -12 6 -16 20 -12 11 3 22 1 25 -4 3 -4
12 -6 19 -3 8 3 17 1 21 -5 14 -24 26 -8 24 33 -3 42 -4 44 -39 50 -55 9 -84
38 -116 113 -36 87 -56 117 -98 142 -40 25 -55 26 -63 5z"/>
<path d="M2869 3036 c-43 -29 -62 -58 -89 -130 -28 -74 -54 -103 -103 -118
-50 -14 -57 -22 -57 -65 0 -32 12 -43 25 -22 4 6 13 8 21 5 7 -3 16 -1 19 3 3
5 14 7 25 4 14 -4 20 0 20 12 0 12 5 15 20 10 15 -5 20 -2 20 10 0 12 5 15 16
11 13 -5 15 -2 11 14 -4 15 0 20 15 20 15 0 18 5 13 20 -5 16 -2 20 20 20 22
0 25 3 19 25 -5 22 -3 25 21 25 21 0 25 4 20 19 -4 12 0 21 11 25 13 5 14 9 4
20 -9 12 -7 17 11 27 22 11 22 12 3 26 -15 11 -16 15 -5 22 16 10 8 41 -11 41
-8 0 -29 -11 -49 -24z"/>
<path d="M2326 3034 c-3 -9 -4 -20 0 -25 3 -5 79 -9 170 -9 l165 0 -3 23 c-3
22 -6 22 -164 25 -141 2 -162 0 -168 -14z"/>
<path d="M1840 2999 c0 -5 7 -9 15 -9 8 0 14 -5 13 -11 -2 -7 33 -28 77 -48
98 -43 94 -40 72 -55 -23 -17 -22 -33 3 -41 16 -5 18 -10 10 -26 -8 -15 -7
-21 4 -25 8 -3 20 -3 27 1 8 5 9 1 4 -14 -5 -17 -2 -21 13 -21 16 0 19 -5 15
-21 -5 -19 -3 -21 20 -17 19 4 27 0 31 -14 3 -14 10 -18 24 -14 13 4 22 1 25
-9 4 -8 13 -12 20 -9 8 3 17 -2 21 -11 3 -10 12 -15 21 -11 8 3 17 1 21 -5 3
-5 14 -7 25 -4 10 4 19 2 19 -3 0 -5 15 -9 33 -8 27 1 32 6 35 29 3 22 -1 27
-20 29 -37 2 -42 3 -55 11 -6 4 -18 4 -27 1 -10 -4 -18 0 -22 10 -3 9 -15 16
-25 16 -10 0 -19 5 -19 10 0 6 -7 10 -15 10 -9 0 -18 7 -22 16 -3 9 -19 30
-34 47 -16 17 -29 38 -29 47 0 8 -10 20 -22 25 -13 6 -23 16 -23 24 0 9 -44
32 -117 62 -65 26 -118 43 -118 38z m161 -70 c11 -5 19 -12 19 -14 0 -6 -123
46 -135 57 -10 10 83 -25 116 -43z"/>
<path d="M3040 2960 c-63 -27 -114 -53 -113 -59 2 -6 -8 -18 -22 -27 -14 -9
-25 -22 -25 -30 0 -7 -10 -20 -22 -29 -13 -8 -22 -18 -20 -20 5 -10 -30 -55
-43 -55 -7 0 -16 -7 -19 -16 -3 -9 -13 -14 -20 -11 -8 3 -17 -1 -20 -10 -4 -9
-13 -13 -22 -9 -9 3 -21 3 -27 -1 -13 -8 -18 -9 -55 -11 -19 -2 -23 -7 -20
-29 3 -23 8 -28 36 -29 17 -1 32 3 32 8 0 5 9 7 19 3 11 -3 22 -1 25 4 4 6 13
8 21 5 9 -4 18 1 21 11 4 9 13 14 21 11 7 -3 16 1 20 9 3 10 12 13 25 9 14 -4
21 0 24 14 4 14 12 18 31 14 23 -4 25 -2 20 17 -4 16 -1 21 15 21 15 0 18 5
13 19 -5 16 -2 18 16 14 20 -6 22 -3 16 26 -4 18 -3 30 1 27 4 -3 14 -1 22 4
12 7 11 12 -5 31 -11 12 -15 24 -10 26 70 26 159 72 158 81 -2 7 4 12 12 12 8
0 15 5 15 10 0 6 -1 10 -2 9 -2 0 -55 -22 -118 -49z m89 15 c-11 -10 -149 -63
-149 -57 0 8 117 59 139 61 8 1 12 -1 10 -4z"/>
<path d="M2342 2955 c-7 -14 -12 -34 -12 -44 0 -19 36 -71 49 -71 4 0 17 18
30 40 l23 40 25 -37 c43 -64 52 -64 84 -1 l21 40 25 -38 c14 -22 28 -41 30
-44 3 -3 13 6 23 20 22 28 26 71 10 101 -10 17 -23 19 -154 19 l-143 0 -11
-25z m54 -20 c-1 -29 -16 -35 -16 -7 0 16 8 32 16 32 1 0 1 -11 0 -25z m114
-7 c-1 -26 -3 -30 -10 -16 -6 9 -7 23 -4 32 9 25 14 19 14 -16z m107 -15 c-4
-17 -4 -17 -12 0 -4 9 -4 25 0 35 8 16 8 16 12 0 3 -10 3 -26 0 -35z"/>
<path d="M2416 2865 c-9 -13 -16 -26 -16 -27 0 -2 16 -3 35 -3 19 0 35 2 35 3
0 2 -9 15 -19 28 l-19 24 -16 -25z"/>
<path d="M2546 2865 c-9 -13 -16 -26 -16 -27 0 -2 16 -3 35 -3 19 0 35 2 35 3
0 2 -9 15 -19 28 l-19 24 -16 -25z"/>
<path d="M2372 2809 c2 -6 7 -10 11 -10 4 1 61 1 127 1 73 0 120 4 120 10 0 6
-50 10 -131 10 -89 0 -130 -3 -127 -11z"/>
<path d="M2392 2768 c3 -7 13 -13 24 -13 18 0 19 -10 20 -215 1 -200 0 -206
-6 -80 -4 74 -8 165 -9 203 0 38 -5 67 -11 67 -11 0 -8 -94 12 -365 5 -77 13
-189 17 -249 6 -90 10 -111 26 -122 25 -19 41 -18 63 4 24 24 33 132 41 492 4
196 9 265 18 265 7 0 18 6 25 13 10 10 -12 12 -106 12 -89 0 -117 -3 -114 -12z
m136 -73 c1 -33 -2 -132 -7 -220 l-10 -160 5 207 c2 133 0 209 -6 213 -6 3
-13 -1 -17 -11 -3 -9 -1 -163 6 -342 6 -179 9 -327 6 -330 -3 -3 -8 -3 -11 1
-7 7 -24 689 -17 700 3 5 15 7 26 5 19 -3 22 -10 25 -63z"/>
<path d="M2581 2603 c2 -108 3 -119 9 -68 12 91 11 195 0 195 -6 0 -9 -48 -9
-127z"/>
<path d="M2020 2411 c0 -27 -40 -39 -56 -16 -18 24 -58 3 -49 -26 10 -29 -23
-64 -43 -47 -12 10 -18 8 -33 -11 -18 -22 -18 -26 -4 -41 22 -25 18 -49 -10
-60 -34 -13 -35 -57 -2 -62 28 -4 36 -44 12 -62 -15 -11 -15 -14 3 -36 16 -20
22 -22 34 -12 20 17 53 -18 43 -47 -9 -30 33 -51 52 -26 10 15 17 16 38 7 16
-7 23 -17 19 -27 -5 -11 1 -15 25 -15 24 0 31 4 31 19 0 25 49 35 72 14 13
-12 19 -12 37 -1 23 14 26 24 10 33 -7 5 -3 16 12 31 16 17 26 21 38 14 12 -6
20 -3 29 11 16 26 15 39 -4 39 -12 0 -15 6 -10 23 3 12 6 25 6 30 0 4 9 7 20
7 16 0 20 7 20 30 0 23 -5 30 -19 30 -26 0 -35 40 -13 56 14 11 15 15 3 38
-11 20 -17 23 -28 14 -20 -16 -68 29 -51 49 8 10 7 17 -8 28 -25 19 -34 18
-48 -1 -9 -12 -17 -13 -39 -5 -15 6 -27 17 -27 26 0 10 -10 15 -30 15 -23 0
-30 -5 -30 -19z m3 -110 c0 -60 -30 -91 -87 -91 -54 0 -57 9 -21 63 23 33 93
81 104 71 2 -2 4 -21 4 -43z m134 18 c17 -11 41 -39 52 -62 l21 -42 -45 -3
c-35 -2 -52 2 -75 20 -25 20 -29 30 -29 71 -1 46 0 48 22 42 12 -4 36 -16 54
-26z m-75 -101 c24 -20 28 -44 12 -67 -27 -37 -84 -22 -84 23 0 22 27 56 45
56 6 0 18 -6 27 -12z m-82 -93 c20 -22 28 -62 21 -110 -3 -16 -84 40 -106 72
-36 53 -33 63 18 63 33 0 49 -6 67 -25z m230 19 c0 -4 -10 -24 -22 -46 -22
-38 -61 -69 -105 -83 -21 -6 -23 -3 -23 35 0 61 39 99 103 100 26 0 47 -3 47
-6z"/>
<path d="M2910 2410 c0 -26 -49 -40 -62 -17 -7 13 -13 14 -33 5 -28 -12 -30
-19 -14 -35 8 -8 5 -17 -11 -33 -16 -16 -25 -19 -33 -11 -16 16 -23 14 -36
-15 -10 -22 -9 -28 4 -38 20 -15 9 -56 -16 -56 -14 0 -19 -7 -19 -30 0 -23 5
-30 19 -30 24 0 35 -40 17 -59 -21 -21 0 -62 28 -56 32 7 60 -18 47 -43 -8
-16 -6 -21 16 -31 21 -9 27 -9 37 4 15 20 56 9 56 -16 0 -14 7 -19 30 -19 23
0 30 5 30 19 0 26 48 38 64 15 19 -25 58 -2 51 29 -8 31 28 65 49 48 11 -10
17 -7 30 11 15 21 15 24 -3 38 -25 19 -12 60 19 60 17 0 21 5 18 28 -2 15 -7
27 -13 27 -34 1 -48 47 -19 63 26 14 0 56 -30 48 -31 -8 -64 27 -47 48 10 12
7 18 -15 32 -25 17 -27 17 -39 0 -17 -23 -65 -12 -65 15 0 14 -7 19 -30 19
-23 0 -30 -4 -30 -20z m-24 -179 c-21 -22 -32 -26 -70 -23 -44 4 -45 4 -35 30
14 36 58 82 94 97 l30 13 3 -45 c3 -38 -1 -50 -22 -72z m154 90 c29 -20 70
-78 70 -97 0 -8 -16 -14 -42 -16 -35 -2 -48 2 -70 24 -23 21 -28 35 -28 73 0
43 1 46 23 40 12 -4 33 -15 47 -24z m-65 -111 c40 -45 -20 -105 -65 -65 -25
23 -25 40 0 65 25 25 42 25 65 0z m-90 -85 c19 -20 25 -36 25 -70 0 -25 -3
-45 -7 -45 -15 0 -76 42 -94 63 -10 12 -23 34 -28 50 -10 27 -10 27 34 27 34
0 50 -6 70 -25z m225 11 c0 -36 -69 -107 -117 -121 -21 -6 -23 -3 -23 39 0 64
29 94 93 95 33 1 47 -3 47 -13z"/>
<path d="M2645 1809 c-43 -12 -92 -67 -115 -126 -17 -47 -18 -63 0 -63 4 0 12
17 18 38 13 44 72 116 116 143 33 20 29 22 -19 8z"/>
<path d="M3437 1582 c-13 -14 -17 -38 -17 -100 0 -88 6 -96 48 -66 20 14 22
24 22 100 0 75 -2 84 -18 84 -11 0 -26 -8 -35 -18z m33 -76 c0 -36 -4 -68 -10
-71 -6 -4 -10 20 -10 64 0 41 4 71 10 71 6 0 10 -28 10 -64z"/>
<path d="M1550 1490 c0 -88 0 -90 29 -104 16 -9 31 -12 35 -9 3 4 6 44 6 89 0
74 -2 84 -22 98 -43 30 -48 22 -48 -74z m37 -47 c-2 -21 -4 -4 -4 37 0 41 2
58 4 38 2 -21 2 -55 0 -75z"/>
<path d="M3380 1525 c0 -25 -4 -45 -10 -45 -5 0 -10 16 -10 36 0 24 -4 34 -12
32 -9 -3 -14 -33 -16 -91 -3 -79 -5 -87 -22 -87 -18 0 -20 7 -20 81 0 60 -3
80 -12 77 -9 -3 -14 -34 -16 -97 l-3 -93 25 6 c70 17 76 23 76 71 0 25 5 45
10 45 6 0 10 -18 10 -41 0 -28 4 -39 13 -37 8 3 13 34 15 96 2 77 0 92 -13 92
-11 0 -15 -11 -15 -45z"/>
<path d="M1635 1529 c-10 -15 3 -58 26 -90 20 -29 26 -69 9 -69 -5 0 -10 14
-10 30 0 18 -5 30 -13 30 -11 0 -15 -30 -8 -61 2 -10 52 -29 62 -24 17 11 8
70 -16 110 -27 44 -30 55 -15 55 6 0 10 -9 10 -19 0 -10 7 -21 15 -25 21 -8
20 37 -1 58 -18 18 -50 21 -59 5z"/>
<path d="M1733 1423 c-8 -66 -8 -90 0 -95 8 -5 16 2 21 17 12 32 26 32 26 1 0
-25 16 -43 27 -32 10 10 -16 179 -29 188 -28 17 -35 5 -45 -79z m47 -14 c0 -5
-4 -9 -10 -9 -5 0 -10 7 -10 16 0 8 5 12 10 9 6 -3 10 -10 10 -16z"/>
<path d="M3199 1503 c-12 -3 -19 -25 -28 -86 -15 -108 -14 -118 4 -111 8 4 15
17 15 29 0 34 18 41 26 10 6 -24 19 -33 27 -17 6 10 -13 166 -21 173 -4 3 -14
4 -23 2z m7 -110 c-11 -11 -17 4 -9 23 7 18 8 18 11 1 2 -10 1 -21 -2 -24z"/>
<path d="M1837 1483 c-14 -14 -6 -71 14 -97 12 -15 19 -35 16 -48 -4 -22 -4
-22 -6 -2 0 12 -8 27 -16 34 -13 11 -15 8 -15 -22 0 -40 15 -58 47 -58 20 0
23 5 23 36 0 20 -9 52 -21 70 -11 19 -18 42 -16 51 4 14 5 14 6 -3 0 -12 8
-24 16 -28 11 -4 15 2 15 25 0 22 -6 32 -26 39 -30 12 -29 12 -37 3z"/>
<path d="M3083 1473 c-9 -3 -13 -33 -13 -98 0 -92 0 -93 23 -88 41 11 46 21
45 109 0 80 -1 84 -21 83 -12 0 -28 -3 -34 -6z m24 -60 c-3 -10 -5 -2 -5 17 0
19 2 27 5 18 2 -10 2 -26 0 -35z m0 -85 c-2 -13 -4 -5 -4 17 -1 22 1 32 4 23
2 -10 2 -28 0 -40z"/>
<path d="M1933 1463 c-19 -7 -18 -167 2 -183 25 -21 50 -8 53 28 4 38 -24 47
-31 10 -2 -13 -4 11 -5 52 0 43 3 65 7 51 11 -39 33 -39 29 -1 -3 33 -28 52
-55 43z"/>
<path d="M2987 1453 c-3 -5 -8 -39 -12 -78 -3 -38 -9 -80 -12 -92 -8 -34 17
-28 30 7 13 34 27 40 27 10 0 -12 7 -20 16 -20 15 0 16 9 10 68 -10 95 -15
112 -36 112 -11 0 -21 -3 -23 -7z m33 -94 c0 -5 -4 -9 -10 -9 -5 0 -10 7 -10
16 0 8 5 12 10 9 6 -3 10 -10 10 -16z"/>
<path d="M2006 1434 c-11 -28 -6 -150 6 -162 7 -7 25 -12 40 -12 l28 0 0 83
c0 51 -5 88 -12 95 -17 17 -55 15 -62 -4z m44 -85 c0 -44 -4 -68 -10 -64 -5 3
-10 35 -10 71 0 36 4 64 10 64 6 0 10 -30 10 -71z"/>
<path d="M2813 1432 c-18 -2 -33 -7 -33 -13 0 -5 5 -9 10 -9 6 0 10 -35 10
-85 0 -69 3 -85 15 -85 12 0 15 16 15 84 0 55 4 86 12 88 23 8 2 23 -29 20z"/>
<path d="M2868 1345 c-3 -85 -1 -95 15 -95 14 0 17 9 17 51 0 31 4 48 10 44 6
-3 10 -24 10 -46 0 -29 4 -39 16 -39 11 0 14 6 8 22 -3 12 -6 52 -6 90 l1 68
-34 0 -34 0 -3 -95z m52 50 c0 -8 -4 -17 -10 -20 -6 -4 -10 5 -10 20 0 15 4
24 10 20 6 -3 10 -12 10 -20z"/>
<path d="M2247 1414 c-4 -4 -7 -45 -7 -90 0 -81 1 -84 26 -90 14 -4 30 -2 36
4 12 12 6 68 -7 63 -5 -2 -9 -12 -7 -22 2 -9 -2 -20 -8 -24 -6 -4 -10 19 -10
70 0 50 4 74 10 70 6 -4 9 -14 8 -22 -2 -9 3 -18 10 -21 10 -3 13 5 10 29 -2
28 -8 35 -28 37 -14 2 -29 0 -33 -4z"/>
<path d="M2328 1326 c-3 -87 -1 -96 15 -96 16 0 17 9 15 92 -2 59 -7 93 -15
95 -8 3 -13 -24 -15 -91z"/>
<path d="M2370 1324 l0 -95 38 3 37 3 3 83 c3 81 2 82 -23 92 -53 20 -55 18
-55 -86z m50 -4 c0 -40 -4 -70 -10 -70 -6 0 -10 30 -10 70 0 40 4 70 10 70 6
0 10 -30 10 -70z"/>
<path d="M2570 1325 l0 -95 28 0 c43 0 52 17 52 95 0 78 -9 95 -52 95 l-28 0
0 -95z m50 1 c0 -36 -4 -68 -10 -71 -6 -4 -10 20 -10 64 0 41 4 71 10 71 6 0
10 -28 10 -64z"/>
<path d="M2660 1325 l0 -95 29 0 c35 0 49 16 21 23 -29 7 -28 63 1 70 12 3 18
10 15 16 -4 6 -13 8 -21 4 -11 -4 -15 3 -15 26 0 24 4 31 20 31 11 0 20 5 20
10 0 6 -16 10 -35 10 l-35 0 0 -95z"/>
<path d="M2485 1398 c-7 -22 -24 -172 -20 -177 11 -11 35 12 35 34 0 14 5 25
10 25 6 0 10 -11 10 -24 0 -26 14 -41 29 -32 7 5 3 52 -14 154 -4 23 -11 32
-26 32 -11 0 -21 -6 -24 -12z m35 -83 c0 -8 -4 -15 -10 -15 -5 0 -10 7 -10 15
0 8 5 15 10 15 6 0 10 -7 10 -15z"/>
<path d="M2140 1320 c0 -5 9 -10 20 -10 11 0 20 5 20 10 0 6 -9 10 -20 10 -11
0 -20 -4 -20 -10z"/>
</g>
</svg>
